<svg width="64" height="64" viewBox="0 0 64 64" fill="none" xmlns="http://www.w3.org/2000/svg">
<g clip-path="url(#clip0)">
<path d="M59.8688 35.0714V54.225C59.8688 57.6691 57.7268 59.8092 54.2886 59.8182C44.6162 59.8182 34.9439 59.8182 25.2715 59.8182C24.8086 59.8105 24.3606 59.9812 24.0204 60.2948C19.7363 63.8918 14.8671 64.9798 9.61986 63.0734C7.12254 62.2689 4.90881 60.7652 3.2416 58.7408C1.57439 56.7164 0.523759 54.2565 0.214485 51.6532C-0.205968 49.312 -0.00600951 46.9017 0.794498 44.6617C1.59501 42.4216 2.9682 40.4298 4.77767 38.8841C5.22116 38.5224 5.68711 38.189 6.17272 37.886C5.10056 37.1065 4.25535 36.0561 3.72389 34.8424C3.19243 33.6287 2.99387 32.2956 3.1486 30.9799H9.25984C9.52085 28.8487 11.0599 28.7678 12.86 28.9026C12.644 27.8236 12.437 26.8254 12.239 25.8363C11.996 24.6583 11.6989 23.4893 11.5279 22.3023C11.262 20.7198 11.3737 19.0969 11.8538 17.5656C12.3339 16.0344 13.169 14.6379 14.291 13.4898C14.354 13.4269 14.399 13.3639 14.489 13.256C14.345 13.0312 14.201 12.8064 14.048 12.5816L10.9789 8.08542C10.5739 7.58177 10.3407 6.96199 10.3132 6.31654C10.2856 5.67108 10.4653 5.03373 10.8259 4.49748C11.1474 3.91931 11.6344 3.45032 12.2246 3.15069C12.8148 2.85107 13.4811 2.73449 14.138 2.81592C14.7542 2.85925 15.3425 3.08894 15.8248 3.47445C16.3071 3.85995 16.6606 4.38301 16.8381 4.97408L18.9262 10.6842H19.1242C19.1872 10.4954 19.3222 10.3065 19.3042 10.1357C19.0972 7.93255 18.8812 5.73842 18.6472 3.53531C18.5689 3.01828 18.6239 2.48984 18.8069 1.99995C18.99 1.51005 19.295 1.07487 19.6932 0.735525C20.0914 0.396184 20.5696 0.16389 21.0827 0.0605975C21.5957 -0.0426954 22.1267 -0.0135766 22.6254 0.145202C23.2945 0.330512 23.8766 0.74625 24.2686 1.31891C24.6606 1.89157 24.8373 2.58427 24.7675 3.27453C24.6144 5.1809 24.3984 7.07828 24.2094 8.97566C24.1644 9.40729 24.1014 9.82993 24.0924 10.2616C24.0924 10.4144 24.2184 10.5673 24.2814 10.7292H24.4614C24.6954 10.1177 24.9295 9.50621 25.1545 8.88574C25.6225 7.61782 26.0545 6.3499 26.5405 5.08199C26.7142 4.4855 27.0656 3.95603 27.548 3.56406C28.0303 3.17209 28.6208 2.93622 29.2406 2.88786C29.8913 2.80024 30.5534 2.9062 31.1441 3.19249C31.7348 3.47878 32.2279 3.9327 32.5618 4.49748C32.919 5.03569 33.0981 5.67234 33.0739 6.31767C33.0497 6.963 32.8233 7.58445 32.4268 8.09441L28.9076 13.265C30.1879 14.5339 31.122 16.1089 31.6214 17.8401C32.1208 19.5714 32.1687 21.4015 31.7607 23.1565C32.7922 21.7062 34.2651 20.6277 35.96 20.0816C37.6548 19.5355 39.4809 19.5511 41.1661 20.1261C41.1661 18.3277 41.1661 16.6551 41.1661 14.9466C41.1507 14.3228 41.1989 13.6991 41.3101 13.0851C41.615 11.7268 42.3739 10.5128 43.4619 9.64314C44.5499 8.77352 45.902 8.30021 47.2953 8.30124V10.2706C46.9263 10.3425 46.5483 10.3875 46.1793 10.4954C45.3473 10.7351 44.6131 11.2327 44.0825 11.9163C43.5519 12.6 43.2524 13.4344 43.2272 14.2991C43.2272 15.0814 43.2272 15.8728 43.2272 16.826L43.7762 16.1246C44.4361 15.2854 45.2779 14.6067 46.2382 14.1395C47.1985 13.6722 48.2523 13.4286 49.3204 13.4269C51.0395 13.4269 52.7586 13.4269 54.5316 13.4269C54.6911 14.749 54.494 16.0898 53.9607 17.3103C53.4274 18.5308 52.5774 19.5868 51.4985 20.3689C54.7026 22.3382 56.4037 25.3237 57.3397 28.8936H61.4439C63.244 28.8936 64 29.613 64 31.4744C64 31.987 64 32.5086 64 33.0211C63.9976 33.5657 63.7794 34.0872 63.3931 34.4714C63.0069 34.8557 62.484 35.0714 61.9389 35.0714C61.2729 35.0714 60.6069 35.0714 59.8688 35.0714ZM13.418 39.1809C12.275 39.1809 11.1769 39.2618 10.0969 39.1809C9.23716 39.1012 8.37086 39.2286 7.57062 39.5525C6.77038 39.8764 6.05953 40.3873 5.49769 41.0423C4.12597 42.4185 3.11699 44.1129 2.56099 45.974C2.00499 47.8351 1.91929 49.8049 2.31157 51.7072C2.84071 54.8375 4.57268 57.6376 7.13831 59.5106C9.70395 61.3835 12.9003 62.1812 16.0461 61.7336C18.3034 61.5114 20.4482 60.642 22.2223 59.2301C23.9964 57.8181 25.3241 55.9239 26.0455 53.7754C27.7556 49.2163 26.8735 44.9899 23.7054 41.2761C23.1362 40.5763 22.4005 40.0303 21.5657 39.6879C20.7308 39.3454 19.8233 39.2175 18.9262 39.3157C17.7792 39.4936 16.6455 39.749 15.5331 40.0801V42.1483L17.7832 40.6736L19.2502 41.9775C16.1271 45.0259 12.851 45.2057 9.75486 42.0404C10.1869 41.5458 10.6549 41.0603 11.0239 40.6196L13.4 42.1483L13.418 39.1809ZM15.5331 38.0029C15.7313 37.9574 15.9266 37.9004 16.1181 37.832C17.848 37.1006 19.7794 36.9969 21.5778 37.5389C23.3761 38.0808 24.928 39.2343 25.9645 40.7995C26.0668 40.9575 26.211 41.0841 26.381 41.1651C26.551 41.246 26.7403 41.2782 26.9275 41.2581H57.8168V32.9941H61.8849V30.9709H15.5781C15.5781 31.6453 15.5241 32.3107 15.4881 33.0211H55.7017V35.0714H15.5331V38.0029ZM28.4216 28.8397C28.5656 28.1653 28.7186 27.4729 28.8626 26.7805C29.3046 24.9716 29.6501 23.1406 29.8977 21.2951C29.9975 20.1584 29.8595 19.0133 29.4926 17.9327C29.1256 16.8521 28.5377 15.8595 27.7662 15.0181C26.9947 14.1767 26.0564 13.5048 25.011 13.0452C23.9656 12.5855 22.836 12.3482 21.6938 12.3482C20.5517 12.3482 19.422 12.5855 18.3767 13.0452C17.3313 13.5048 16.393 14.1767 15.6215 15.0181C14.85 15.8595 14.262 16.8521 13.8951 17.9327C13.5282 19.0133 13.3902 20.1584 13.49 21.2951C13.706 23.5342 14.318 25.7373 14.7681 28.1023C15.3585 27.3938 16.0953 26.8212 16.928 26.4239C17.7607 26.0265 18.6696 25.8138 19.5922 25.8003V27.6707L17.0722 28.6329L17.1352 28.8397H28.4216ZM26.2975 57.741H54.5046C55.2905 57.7993 56.0683 57.5507 56.6743 57.0475C57.2804 56.5444 57.6673 55.8258 57.7538 55.0433C57.8124 53.884 57.8124 52.7226 57.7538 51.5633H28.7726C28.4233 53.7824 27.5773 55.8941 26.2975 57.741ZM28.9166 49.4591H57.7177V43.3443H27.5396C28.4232 45.2634 28.8924 47.3468 28.9166 49.4591ZM31.2207 28.8667H55.0987C55.1026 28.8008 55.1026 28.7347 55.0987 28.6688C54.5032 26.297 53.1355 24.1902 51.2105 22.68C50.3829 22.0148 49.3645 21.6305 48.3034 21.5829C46.8003 21.5829 45.2973 21.5829 43.8032 21.6458H43.2452V24.5683L45.5673 23.0576L46.9443 24.4155C44.3612 27.4459 39.591 27.4279 37.494 24.4964L38.727 23.0936L41.1211 24.6583C41.1211 23.849 41.1211 23.2465 41.1211 22.653C41.0996 22.5601 41.0567 22.4735 40.9958 22.4001C40.9348 22.3267 40.8575 22.2686 40.7701 22.2303C39.7693 21.7864 38.663 21.6352 37.5796 21.7944C36.4963 21.9536 35.4803 22.4165 34.6498 23.1296C32.9437 24.6406 31.7461 26.6411 31.2207 28.8577V28.8667ZM52.3445 15.4232C51.0008 15.4225 49.6579 15.4915 48.3214 15.63C47.3433 15.8006 46.4423 16.2702 45.7427 16.9741C45.0431 17.6779 44.5793 18.5813 44.4152 19.5596C45.6142 19.6324 46.8164 19.6324 48.0154 19.5596C49.0886 19.4332 50.0915 18.9612 50.8725 18.2149C51.6535 17.4687 52.1702 16.4887 52.3445 15.4232ZM13.283 37.1846C13.1393 36.219 12.7051 35.32 12.038 34.6069C11.3708 33.8938 10.5023 33.4003 9.54785 33.192C8.14734 33.0211 6.73759 32.937 5.32669 32.9402C5.48446 33.9314 5.9441 34.8499 6.64305 35.5707C7.34199 36.2916 8.24629 36.7797 9.23284 36.9687C10.578 37.1133 11.93 37.1854 13.283 37.1846ZM16.1001 11.9072C17.0001 11.5205 17.0001 11.5205 16.7121 10.7112C16.1181 9.08357 15.5331 7.45596 14.9121 5.81936C14.7321 5.33377 14.435 4.84819 13.877 4.92012C13.4067 5.0176 12.9733 5.24504 12.626 5.57656C12.239 5.97223 12.437 6.4758 12.734 6.9344L14.228 9.11054L16.1001 11.9072ZM27.2516 11.9611L30.6267 6.97037C30.7959 6.78787 30.9034 6.55687 30.9341 6.31C30.9648 6.06312 30.9171 5.81285 30.7977 5.59455C30.6617 5.36142 30.4609 5.17275 30.2196 5.05144C29.9784 4.93012 29.7071 4.88138 29.4386 4.91113C28.8626 4.91113 28.5926 5.35176 28.4126 5.81036C27.8126 7.41699 27.2306 9.02662 26.6665 10.6392C26.5675 10.891 26.4865 11.1518 26.3875 11.4306L27.2516 11.9611ZM22.0043 10.2526C22.2384 7.8786 22.4994 5.46866 22.7064 3.05871C22.7604 2.42026 22.2564 2.04258 21.6173 2.06956C21.4766 2.0647 21.3367 2.0929 21.2088 2.15189C21.081 2.21089 20.9688 2.29903 20.8812 2.40924C20.7937 2.51944 20.7333 2.64864 20.7048 2.78642C20.6763 2.92421 20.6806 3.06676 20.7173 3.20259C20.9243 5.4147 21.1583 7.6358 21.3653 9.84791C21.3653 10.2885 21.5453 10.4324 22.0043 10.2526ZM13.463 33.0031V30.9799H11.2759C11.4019 31.2856 11.4289 31.6093 11.5909 31.7352C12.158 32.1758 12.77 32.5445 13.463 33.0031Z" fill="black"/>
<path d="M4.17464 49.5221H6.19072C6.22093 51.6957 7.09799 53.772 8.63567 55.31C10.1733 56.8479 12.2505 57.7265 14.426 57.759V59.7284C9.77287 60.0431 4.16564 55.8527 4.17464 49.5221Z" fill="black"/>
</g>
<defs>
<clipPath id="clip0">
<rect width="64" height="64" fill="white"/>
</clipPath>
</defs>
</svg>
