<svg width="64" height="64" viewBox="0 0 64 64" fill="none" xmlns="http://www.w3.org/2000/svg">
<path d="M0 2.15733C0.147004 1.77956 0.417113 1.46172 0.767146 1.25461C1.11718 1.0475 1.52693 0.963083 1.93088 1.01485C3.37293 1.01485 4.80277 1.01485 6.24482 1.01485C7.72647 0.981389 9.17862 1.42975 10.3807 2.29184C11.5828 3.15393 12.4692 4.38265 12.9051 5.79136C13.284 6.88521 13.6628 7.97907 13.9928 9.09723C14.0229 9.2749 14.1214 9.43393 14.2674 9.54057C14.4134 9.64722 14.5955 9.69309 14.7749 9.66847C19.5532 9.66847 24.3316 9.79001 29.0977 9.86293C40.1127 10.0088 51.1114 10.1668 62.0938 10.3369C62.6184 10.3396 63.1283 10.51 63.548 10.8231C63.7134 10.9762 63.8397 11.1663 63.9162 11.3777C63.9927 11.5891 64.0173 11.8157 63.988 12.0385C62.7659 17.2404 61.5438 22.4423 60.1995 27.6077C59.7417 29.1713 58.8113 30.5569 57.5345 31.5766C56.2578 32.5964 54.6965 33.2008 53.0626 33.3079C47.2333 33.8913 41.4162 34.5233 35.5869 35.131C31.4074 35.5564 27.2279 36.0061 23.0362 36.3464C22.7357 36.3509 22.4438 36.4464 22.1993 36.6201C21.9547 36.7938 21.7692 37.0375 21.6674 37.3187C21.3473 37.9456 21.1985 38.6451 21.236 39.3472C21.2734 40.0493 21.4957 40.7293 21.8807 41.3189C22.2657 41.9086 22.7997 42.3873 23.4294 42.707C24.059 43.0267 24.7621 43.1762 25.4681 43.1404C34.707 43.0675 43.9337 43.1404 53.1726 43.1404C53.4833 43.136 53.7939 43.1564 54.1014 43.2012C54.4543 43.2523 54.7754 43.4326 55.0015 43.707C55.2276 43.9813 55.3424 44.3298 55.3235 44.684C55.3112 45.0293 55.1751 45.3589 54.9398 45.613C54.7044 45.8672 54.3853 46.0291 54.0403 46.0695C53.8327 46.0817 53.6246 46.0817 53.417 46.0695C44.0559 46.0695 34.6866 46.0695 25.3092 46.0695C24.1324 46.0905 22.9694 45.8141 21.9293 45.2661C20.8891 44.7181 20.0059 43.9165 19.3623 42.9363C18.7188 41.9562 18.3359 40.8296 18.2496 39.6621C18.1633 38.4947 18.3764 37.3245 18.8689 36.2613C19.0826 35.8254 19.2067 35.3515 19.234 34.8674C19.2612 34.3832 19.1911 33.8985 19.0277 33.4416C16.0337 24.6178 13.1007 15.7697 10.1555 6.93383C9.93406 6.03023 9.3944 5.23546 8.63434 4.69362C7.87429 4.15178 6.94416 3.89875 6.01262 3.98042C4.65612 3.98042 3.29961 3.98042 1.9431 3.98042C1.52846 4.04074 1.10573 3.95297 0.749995 3.73269C0.394257 3.5124 0.128529 3.17386 0 2.77718L0 2.15733ZM15.1904 12.6219C15.1904 12.8042 15.2515 12.9136 15.276 13.0108C17.492 19.6712 19.6999 26.3315 21.8996 32.9919C22.0218 33.3687 22.2174 33.4416 22.584 33.4051C24.967 33.1377 27.3501 32.9068 29.7331 32.6637L52.7327 30.2937C53.8912 30.256 55.0015 29.8238 55.878 29.0693C56.7545 28.3149 57.3439 27.2841 57.5476 26.1492C58.3624 22.7704 59.1771 19.3916 59.9918 16.0128C60.2118 15.1256 60.4195 14.2262 60.6517 13.2782L15.1904 12.6219Z" fill="white"/>
<path d="M20.4331 63C19.1105 63 17.8176 62.6098 16.718 61.8787C15.6184 61.1477 14.7617 60.1086 14.2561 58.8931C13.7505 57.6776 13.6188 56.3403 13.8777 55.0503C14.1367 53.7604 14.7745 52.5758 15.7106 51.6465C16.6467 50.7172 17.839 50.085 19.1365 49.8298C20.434 49.5747 21.7785 49.7081 22.9998 50.2131C24.221 50.7182 25.2642 51.5722 25.9973 52.6671C26.7303 53.762 27.1203 55.0485 27.1179 56.3639C27.1147 58.1251 26.409 59.8129 25.1557 61.0571C23.9024 62.3012 22.2039 63 20.4331 63ZM20.3354 60.0344C21.0563 60.0342 21.7611 59.8226 22.3617 59.4261C22.9623 59.0295 23.432 58.4657 23.7122 57.8051C23.9923 57.1445 24.0704 56.4164 23.9367 55.7119C23.803 55.0074 23.4634 54.3577 22.9604 53.8442C22.4574 53.3306 21.8133 52.9759 21.1087 52.8244C20.4041 52.6729 19.6702 52.7314 18.9988 52.9925C18.3274 53.2536 17.7483 53.7058 17.334 54.2925C16.9196 54.8792 16.6884 55.5743 16.6691 56.291C16.6561 56.778 16.7413 57.2626 16.9196 57.7162C17.098 58.1699 17.366 58.5834 17.7078 58.9323C18.0495 59.2813 18.4581 59.5586 18.9094 59.7479C19.3607 59.9372 19.8456 60.0346 20.3354 60.0344Z" fill="white"/>
<path d="M55.3357 56.3518C55.3333 57.6632 54.9402 58.9446 54.2061 60.034C53.4719 61.1234 52.4297 61.9721 51.211 62.4729C49.9922 62.9736 48.6516 63.104 47.3584 62.8476C46.0652 62.5911 44.8774 61.9594 43.9449 61.032C43.0125 60.1047 42.3773 58.9234 42.1194 57.6372C41.8616 56.3511 41.9927 55.0178 42.4962 53.8057C42.9997 52.5937 43.853 51.5571 44.9485 50.827C46.0439 50.0969 47.3323 49.706 48.6509 49.7036C49.5297 49.7004 50.4004 49.8701 51.2129 50.2031C52.0254 50.5361 52.7636 51.0256 53.385 51.6436C54.0063 52.2616 54.4986 52.9958 54.8334 53.8038C55.1682 54.6119 55.3389 55.4778 55.3357 56.3518ZM48.6754 59.998C49.4005 59.998 50.1093 59.7841 50.7122 59.3835C51.3151 58.9828 51.785 58.4134 52.0625 57.7471C52.34 57.0809 52.4126 56.3477 52.2711 55.6405C52.1297 54.9332 51.7805 54.2835 51.2678 53.7735C50.755 53.2636 50.1018 52.9164 49.3906 52.7757C48.6794 52.635 47.9423 52.7072 47.2723 52.9832C46.6024 53.2591 46.0298 53.7265 45.627 54.3261C45.2241 54.9257 45.0091 55.6306 45.0091 56.3518C45.0043 56.8337 45.0955 57.3117 45.2776 57.7583C45.4597 58.2049 45.729 58.6112 46.0699 58.9536C46.4108 59.2961 46.8166 59.5679 47.2638 59.7534C47.711 59.939 48.1908 60.0345 48.6754 60.0344V59.998Z" fill="white"/>
</svg>
