<svg width="64" height="64" viewBox="0 0 64 64" fill="none" xmlns="http://www.w3.org/2000/svg">
<path d="M30.1187 0H33.8717C34.029 0.0509046 34.191 0.0855767 34.3553 0.103472C38.7952 0.372531 43.1202 1.62116 47.019 3.7595C51.3281 6.00725 55.0578 9.2206 57.9159 13.1479C60.774 17.0753 62.683 21.61 63.4934 26.397C63.7237 27.6157 63.8388 28.8573 64 30.0875V33.8355C63.9544 34.0133 63.9198 34.1938 63.8964 34.3759C63.6424 38.8124 62.3911 43.1349 60.2354 47.0225C54.341 57.4962 45.3497 63.1182 33.3422 63.9345C28.2159 64.2797 23.09 63.2559 18.491 60.9683C7.08211 55.3118 0.888377 46.0223 0.0709883 33.3756C-0.329025 27.6266 0.967829 21.8866 3.80104 16.866C6.06241 12.5774 9.28625 8.86919 13.2206 6.03112C17.155 3.19304 21.6932 1.30203 26.4807 0.505866C27.678 0.275927 28.9098 0.172454 30.1187 0ZM31.9837 5.00117C26.6424 5.00117 21.4211 6.58275 16.9798 9.54595C12.5386 12.5091 9.07685 16.7209 7.03231 21.6487C4.98778 26.5765 4.45225 31.999 5.49344 37.2307C6.53463 42.4624 9.10579 47.2684 12.8818 51.0409C16.6579 54.8134 21.4692 57.3832 26.7076 58.4252C31.9459 59.4672 37.376 58.9347 42.3114 56.895C47.2467 54.8553 51.4656 51.4001 54.4347 46.9661C57.4038 42.5321 58.9898 37.3185 58.9921 31.9845C58.9936 28.4415 58.2961 24.933 56.9395 21.6593C55.5828 18.3856 53.5937 15.4109 51.0856 12.9051C48.5775 10.3993 45.5996 8.41156 42.322 7.05538C39.0444 5.6992 35.5314 5.00117 31.9837 5.00117Z" fill="white"/>
<path d="M27.7356 36.9282C27.8548 36.6922 27.9975 36.4688 28.1615 36.2614L42.3334 22.0856C42.5823 21.7913 42.8902 21.5523 43.2372 21.384C43.5842 21.2157 43.9626 21.1218 44.3481 21.1084C44.8079 21.1002 45.2608 21.2201 45.6561 21.4546C46.0514 21.6891 46.3735 22.029 46.5863 22.436C46.7991 22.8431 46.8941 23.3013 46.8607 23.7592C46.8273 24.2172 46.6669 24.6568 46.3974 25.0288C46.2202 25.2632 46.0238 25.4824 45.8102 25.6842L29.6927 41.7799C29.4534 42.1077 29.1399 42.3744 28.7778 42.5583C28.4157 42.7422 28.0152 42.838 27.6089 42.838C27.2027 42.838 26.8022 42.7422 26.4401 42.5583C26.078 42.3744 25.7645 42.1077 25.5252 41.7799C23.0308 39.2889 20.5287 36.7941 18.019 34.2954C17.7506 34.0702 17.5323 33.7914 17.3784 33.4769C17.2244 33.1623 17.1381 32.8191 17.1251 32.4692C17.1121 32.1194 17.1726 31.7707 17.3028 31.4456C17.433 31.1205 17.6299 30.8263 17.8809 30.5819C18.3401 30.1269 18.9608 29.8716 19.6077 29.8716C20.2546 29.8716 20.8753 30.1269 21.3346 30.5819C22.198 31.3752 22.9924 32.2144 23.8213 33.0422L27.7356 36.9282Z" fill="white"/>
</svg>
