<svg width="64" height="64" viewBox="0 0 64 64" fill="none" xmlns="http://www.w3.org/2000/svg">
<g clip-path="url(#clip0)">
<path d="M30.2134 51.3772L0.754342 21.9181C0.251448 21.4152 9.23085e-08 20.8197 1.2239e-07 20.1315C1.5247e-07 19.4433 0.251448 18.8478 0.754343 18.3449L7.34491 11.7543C7.84781 11.2514 8.44334 11 9.13151 11C9.81969 11 10.4152 11.2514 10.9181 11.7543L32 32.8362L53.0819 11.7543C53.5848 11.2514 54.1803 11 54.8685 11C55.5567 11 56.1522 11.2514 56.6551 11.7543L63.2457 18.3449C63.7486 18.8478 64 19.4433 64 20.1315C64 20.8197 63.7486 21.4152 63.2457 21.9181L33.7866 51.3772C33.2837 51.8801 32.6882 52.1315 32 52.1315C31.3118 52.1315 30.7163 51.8801 30.2134 51.3772Z" fill="white"/>
</g>
<defs>
<clipPath id="clip0">
<rect width="64" height="64" fill="white" transform="translate(64) rotate(90)"/>
</clipPath>
</defs>
</svg>
