<svg width="64" height="64" viewBox="0 0 64 64" fill="none" xmlns="http://www.w3.org/2000/svg">
<path d="M33.558 63.9761C33.0253 63.7225 32.5588 63.3485 32.1956 62.8836C31.8324 62.4187 31.5826 61.8757 31.4655 61.2975C28.2311 49.7877 24.9428 38.29 21.7263 26.7803C20.4649 22.2541 22.2702 20.4066 26.7541 21.6861C38.3825 25.0105 49.9869 28.4185 61.5914 31.8206C64.2459 32.5979 64.7722 34.7026 62.8411 36.8311C60.91 38.9597 58.8233 41.118 56.7308 43.1808C55.7264 44.1674 55.84 44.8311 56.8324 45.7279C58.8353 47.5216 60.7484 49.453 62.6855 51.3304C64.3894 52.9866 64.4433 54.7145 62.7932 56.3946C60.6648 58.5531 58.5243 60.6996 56.3481 62.8102C55.8055 63.2517 55.2233 63.642 54.6086 63.9761H53.1854C52.4121 63.4591 51.6677 62.9002 50.9554 62.3019C49.12 60.6038 47.3386 58.852 45.5391 57.1181C44.2178 55.8505 44.1879 55.8625 42.8009 57.1181C40.2002 59.426 37.5875 61.71 34.9808 64L33.558 63.9761ZM24.2194 23.2645C23.9742 23.6651 23.5257 24.0777 23.4899 24.5202C23.4945 25.1829 23.6118 25.84 23.8367 26.4634C26.9973 37.7519 30.1681 49.0383 33.3487 60.3228C33.809 61.9551 34.2812 62.1165 35.5606 60.9207C37.6292 59.0373 39.6559 57.118 41.7245 55.2346C43.3866 53.7279 45.1025 53.7818 46.7406 55.3483C48.7614 57.2795 50.806 59.1868 52.7849 61.1599C53.586 61.9552 54.202 62.0509 55.033 61.1899C57.0717 59.0733 59.1582 57.0044 61.2627 54.9536C62.0399 54.1942 62.0937 53.6143 61.2627 52.843C59.212 50.9476 57.2212 48.9805 55.2064 47.0433C53.4726 45.3751 53.4129 43.6233 55.1168 41.8595C56.9761 39.9043 58.8592 37.9611 60.7305 36.0179C62.2251 34.4693 62.1414 34.1286 60.1326 33.5426C49.4668 30.4415 38.801 27.3403 28.1352 24.2392C26.9574 23.9163 25.7559 23.6472 24.2194 23.2645Z" fill="white"/>
<path d="M0 30.4156C0.530122 30.1576 1.09368 29.9744 1.67418 29.8714C3.41654 29.7728 5.16308 29.7728 6.90544 29.8714C7.46145 29.9133 8.34032 30.4276 8.42402 30.8581C8.60936 31.7848 7.76032 31.9044 6.99506 31.8984C5.15366 31.8984 3.31211 31.9402 1.47071 31.8625C0.949684 31.7494 0.452142 31.5471 0 31.2646V30.4156Z" fill="white"/>
<path d="M14.8567 13.7518C14.8567 14.6367 13.942 15.2227 13.3501 14.6906C11.7359 13.2377 10.2235 11.6652 8.74676 10.0748C8.5674 9.87746 8.74668 9.14801 8.96191 8.87896C9.11854 8.76441 9.30199 8.69208 9.49467 8.66905C9.68734 8.64601 9.88265 8.6729 10.0619 8.74729C11.6582 10.2301 13.1829 11.7788 14.7134 13.3274C14.827 13.4111 14.8268 13.6442 14.8567 13.7518Z" fill="white"/>
<path d="M50.035 14.9118C49.8018 14.7264 49.3654 14.559 49.2757 14.278C49.2151 14.085 49.1974 13.8812 49.2243 13.6808C49.2512 13.4803 49.3217 13.2882 49.431 13.1181C50.83 11.6412 52.271 10.2003 53.7716 8.82512C53.9585 8.71927 54.1695 8.66367 54.3843 8.66367C54.5991 8.66367 54.8102 8.71927 54.9971 8.82512C55.2601 9.04036 55.4396 9.83558 55.2662 10.0209C53.8015 11.6173 52.2468 13.148 50.7043 14.6787C50.5848 14.7982 50.3399 14.8041 50.035 14.9118Z" fill="white"/>
<path d="M9.5301 55.4918C9.30291 55.3244 8.87229 55.163 8.76468 54.8939C8.69037 54.7114 8.65825 54.5143 8.67068 54.3176C8.6831 54.1209 8.73981 53.9295 8.83649 53.7578C10.2235 52.269 11.6464 50.8101 13.147 49.4349C13.3572 49.3244 13.5912 49.2668 13.8287 49.2668C14.0661 49.2668 14.2998 49.3244 14.51 49.4349C14.6347 49.6049 14.7148 49.8034 14.743 50.0123C14.7712 50.2212 14.7466 50.4338 14.6714 50.6307C13.1888 52.2212 11.6164 53.7279 10.062 55.2466C9.9723 55.3662 9.80511 55.3842 9.5301 55.4918Z" fill="white"/>
<path d="M31.9259 4.25119C31.9819 5.28742 31.9658 6.32625 31.878 7.36027C31.8242 7.77283 31.2501 8.11357 30.9153 8.48427C30.5685 8.10759 29.9348 7.74891 29.9169 7.35429C29.8153 5.28553 29.8153 3.20472 29.9169 1.13597C29.9169 0.741347 30.5687 0.376682 30.9214 0C31.2562 0.382661 31.8242 0.729394 31.878 1.14195C31.9658 2.17597 31.9819 3.21495 31.9259 4.25119Z" fill="white"/>
</svg>
