<svg width="64" height="64" viewBox="0 0 64 64" fill="none" xmlns="http://www.w3.org/2000/svg">
<path d="M17.3771 0H46.6273C46.7273 0.0172735 46.8295 0.0172735 46.9295 0C50.0057 0.251297 52.965 1.29226 55.5214 3.02224C59.318 5.44662 62.0776 9.19676 63.2636 13.5434C63.6035 14.7901 63.7545 16.0934 64 17.3212V46.6369C64 46.8447 64 47.0336 64 47.2414C63.7823 49.7401 63.0287 52.1625 61.7907 54.3437C60.2063 57.318 57.8287 59.7947 54.9218 61.4986C52.015 63.2026 48.6928 64.067 45.3244 63.9959C36.4492 63.9959 27.5741 63.9959 18.6989 63.9959C14.1949 64.0605 9.82979 62.4365 6.4625 59.4437C4.38592 57.67 2.72929 55.4569 1.61241 52.9644C0.49552 50.4718 -0.0537191 47.7622 0.00440028 45.0314C0.00440028 36.3991 0.00440028 27.7668 0.00440028 19.1534C-0.0632743 16.018 0.650588 12.915 2.08157 10.1245C3.22123 7.83285 4.83108 5.80727 6.80609 4.17992C8.78111 2.55256 11.0769 1.35999 13.5437 0.680004C14.79 0.37778 16.093 0.245557 17.3771 0ZM58.9204 32.1113C58.9204 27.7291 58.9204 23.3657 58.9204 18.889C58.9283 17.8102 58.8207 16.7337 58.5994 15.6779C57.9358 12.6156 56.2312 9.87831 53.7762 7.93228C51.3212 5.98626 48.2675 4.95195 45.1356 5.00559H18.8877C17.8285 5.00766 16.7721 5.11523 15.7342 5.3267C12.6479 5.98541 9.88804 7.70038 7.93015 10.1761C5.97226 12.6518 4.93901 15.7331 5.00848 18.889C5.00848 27.6346 5.00848 36.3802 5.00848 45.1258C4.99796 46.1653 5.09287 47.2033 5.29173 48.2236C5.93057 51.2971 7.61694 54.0532 10.0625 56.0205C12.508 57.9879 15.5608 59.0443 18.6989 59.0092C27.5741 59.0092 36.4303 59.0092 45.3055 59.0092C47.2629 59.0393 49.2011 58.6192 50.9705 57.7815C53.4168 56.7141 55.4871 54.9379 56.9143 52.682C58.3414 50.4262 59.0599 47.7942 58.977 45.1258C59.0526 40.7814 58.9959 36.418 58.9959 32.1113H58.9204Z" fill="white"/>
<path d="M49.2521 32.1113C49.2334 35.5266 48.2024 38.8597 46.2895 41.6887C44.3766 44.5178 41.6679 46.7158 38.506 48.0046C35.3441 49.2934 31.871 49.6152 28.5263 48.9292C25.1815 48.2432 22.1153 46.5802 19.7156 44.1506C17.3158 41.7211 15.6904 38.6342 15.0449 35.2804C14.3994 31.9266 14.7629 28.4566 16.0893 25.3095C17.4157 22.1624 19.6455 19.4795 22.4965 17.6003C25.3476 15.7211 28.6918 14.7299 32.1061 14.7523C36.6771 14.7922 41.0466 16.6405 44.2594 19.8933C47.4723 23.146 49.2673 27.5387 49.2521 32.1113ZM44.248 32.1113C44.2518 29.6859 43.5362 27.3139 42.1918 25.2955C40.8475 23.277 38.9348 21.7028 36.6957 20.772C34.4567 19.8413 31.992 19.5958 29.6135 20.0667C27.2349 20.5376 25.0495 21.7036 23.3337 23.4173C21.6178 25.131 20.4488 27.3153 19.9744 29.6939C19.5 32.0724 19.7415 34.5382 20.6686 36.7793C21.5956 39.0205 23.1664 40.9362 25.1821 42.2841C27.1979 43.6319 29.5681 44.3514 31.9928 44.3514C35.2383 44.3464 38.3497 43.0558 40.6464 40.762C42.9431 38.4681 44.2381 35.3578 44.248 32.1113Z" fill="white"/>
<path d="M51.9902 14.5256C51.9865 15.0188 51.8366 15.4997 51.5596 15.9076C51.2826 16.3156 50.8909 16.6322 50.434 16.8174C49.9772 17.0027 49.4756 17.0482 48.9929 16.9484C48.5101 16.8485 48.0678 16.6077 47.7218 16.2563C47.3759 15.905 47.1419 15.459 47.0494 14.9746C46.9568 14.4902 47.01 13.9893 47.2021 13.5351C47.3942 13.081 47.7166 12.694 48.1286 12.4231C48.5405 12.1523 49.0235 12.0097 49.5165 12.0134C49.8438 12.0159 50.1675 12.0828 50.4689 12.2104C50.7704 12.338 51.0438 12.5237 51.2735 12.757C51.5032 12.9903 51.6847 13.2666 51.8077 13.57C51.9307 13.8735 51.9927 14.1982 51.9902 14.5256Z" fill="white"/>
</svg>
