<svg width="64" height="64" viewBox="0 0 64 64" fill="none" xmlns="http://www.w3.org/2000/svg">
<path d="M64 13.1316V50.8407C63.9458 50.9024 63.9062 50.9757 63.8844 51.0548C63.6388 52.4679 62.8911 53.7454 61.7782 54.6531C60.6654 55.5608 59.262 56.0379 57.8252 55.997H6.16501C5.34081 56.023 4.52015 55.8784 3.75464 55.5725C2.98914 55.2666 2.29536 54.806 1.71694 54.2195C1.13852 53.6331 0.687984 52.9336 0.393661 52.165C0.0993377 51.3963 -0.0323998 50.5753 0.00673466 49.7534C0.00673466 37.8921 0.00673466 26.0253 0.00673466 14.153C-0.00245239 13.5984 0.0585672 13.0449 0.188346 12.5056C0.526857 11.166 1.32103 9.98513 2.43519 9.16486C3.54935 8.34458 4.91438 7.93575 6.29709 8.00821H52.3934C54.3086 8.00821 56.2237 8.00821 58.1389 8.00821C59.3863 8.03651 60.5935 8.45363 61.5913 9.20109C62.5891 9.94854 63.3275 10.9888 63.7028 12.1761L64 13.1316ZM4.00219 16.4264V49.5886C3.95772 49.9055 3.98787 50.2283 4.09023 50.5316C4.19258 50.8348 4.36434 51.11 4.59188 51.3354C4.81941 51.5609 5.09646 51.7303 5.40105 51.8303C5.70564 51.9303 6.02939 51.9581 6.34662 51.9115H57.6436C57.9615 51.9617 58.2867 51.9364 58.593 51.8377C58.8993 51.739 59.1779 51.5697 59.4063 51.3434C59.6346 51.1171 59.8063 50.8403 59.9074 50.5354C60.0085 50.2305 60.0361 49.9062 59.988 49.5886V17.036C59.988 16.8548 59.988 16.69 59.988 16.4264L59.4432 16.8712L33.5553 39.3089C33.3631 39.5318 33.125 39.7106 32.8571 39.8333C32.5893 39.9559 32.2981 40.0194 32.0034 40.0194C31.7087 40.0194 31.4175 39.9559 31.1496 39.8333C30.8818 39.7106 30.6436 39.5318 30.4514 39.3089L8.11321 19.9189L4.00219 16.4264ZM58.6837 12.2256V12.0938H5.35602V12.2256L32.0364 35.2892L58.6837 12.2256Z" fill="white"/>
</svg>
