<svg width="64" height="64" viewBox="0 0 64 64" fill="none" xmlns="http://www.w3.org/2000/svg">
<path d="M31.9421 61C30.5406 59.1853 29.1657 57.3707 27.8263 55.556C23.7038 50.0844 20.0364 44.2692 16.8626 38.1716C14.8382 34.5198 13.3441 30.5862 12.4275 26.4942C11.0171 19.0269 13.1105 12.6393 18.5036 7.44028C20.5943 5.37406 23.1219 3.82791 25.8907 2.92162C28.6595 2.01532 31.5951 1.77322 34.4701 2.21405C38.5262 2.70262 42.3355 4.46178 45.3764 7.25063C48.4173 10.0395 50.541 13.7217 51.4567 17.7929C52.2959 21.2905 52.1607 24.9585 51.0664 28.3815C49.702 32.6819 47.8817 36.8167 45.6378 40.7121C41.7025 47.7004 37.2546 54.3733 32.3324 60.6734C32.1993 60.7278 32.1195 60.8095 31.9421 61ZM23.4444 22.3205C23.4391 24.0482 23.9347 25.7388 24.8686 27.1784C25.8024 28.6181 27.1326 29.7423 28.6909 30.4088C30.2492 31.0754 31.9658 31.2544 33.6235 30.9233C35.2813 30.5921 36.8059 29.7657 38.0046 28.5485C39.2033 27.3312 40.0222 25.7778 40.358 24.0845C40.6938 22.3912 40.5312 20.6342 39.8909 19.0354C39.2506 17.4366 38.1613 16.0679 36.7607 15.1022C35.3601 14.1365 33.711 13.6173 32.0219 13.6101C30.8984 13.6017 29.7844 13.8209 28.7441 14.2548C27.7038 14.6888 26.7577 15.3291 25.9604 16.1388C25.1631 16.9484 24.5303 17.9115 24.0984 18.9724C23.6666 20.0334 23.4443 21.1713 23.4444 22.3205Z" stroke="#9C3437" stroke-width="3" stroke-miterlimit="10"/>
</svg>
