<svg width="64" height="64" viewBox="0 0 64 64" fill="none" xmlns="http://www.w3.org/2000/svg">
<path fill-rule="evenodd" clip-rule="evenodd" d="M5.40004 8H58.6005C61.5708 8 64 10.0712 64 12.6027C64 15.1343 61.5708 17.2059 58.6005 17.2059H5.40004C2.43023 17.2059 0 15.1347 0 12.6032C0 10.0712 2.43023 8 5.40004 8ZM5.40004 44.7946H58.6005C61.5708 44.7946 64 46.8657 64 49.3973C64 51.9288 61.5708 54 58.6005 54H5.40004C2.43023 54 0 51.9288 0 49.3973C0 46.8657 2.43023 44.7946 5.40004 44.7946ZM5.40004 26.3975H58.6005C61.5708 26.3975 64 28.4687 64 31.0002C64 33.5318 61.5708 35.6034 58.6005 35.6034H5.40004C2.43023 35.6034 0 33.5318 0 31.0002C0 28.4687 2.43023 26.3975 5.40004 26.3975Z" fill="white"/>
</svg>
