<svg width="64" height="64" viewBox="0 0 64 64" fill="none" xmlns="http://www.w3.org/2000/svg">
<path fill-rule="evenodd" clip-rule="evenodd" d="M5.40004 9H58.6005C61.5708 9 64 11.0712 64 13.6027C64 16.1343 61.5708 18.2059 58.6005 18.2059H5.40004C2.43023 18.2059 0 16.1347 0 13.6032C0 11.0712 2.43023 9 5.40004 9ZM5.40004 45.7946H58.6005C61.5708 45.7946 64 47.8657 64 50.3973C64 52.9288 61.5708 55 58.6005 55H5.40004C2.43023 55 0 52.9288 0 50.3973C0 47.8657 2.43023 45.7946 5.40004 45.7946ZM5.40004 27.3975H58.6005C61.5708 27.3975 64 29.4687 64 32.0002C64 34.5318 61.5708 36.6034 58.6005 36.6034H5.40004C2.43023 36.6034 0 34.5318 0 32.0002C0 29.4687 2.43023 27.3975 5.40004 27.3975Z" fill="#9C3437"/>
</svg>
