<svg width="64" height="64" viewBox="0 0 64 64" fill="none" xmlns="http://www.w3.org/2000/svg">
<path d="M64 33.0647C62.2111 36.2118 59.5487 38.6874 57.3284 41.4568C55.771 43.4499 54.0873 45.2962 52.5193 47.2159C51.4465 48.591 50.0626 49.6937 48.4806 50.4339C46.8987 51.1741 45.1635 51.5308 43.4169 51.4748C38.1553 51.4748 32.9885 51.5378 27.7796 51.4748C26.9264 51.4755 26.0847 51.6705 25.3187 52.0451C24.5527 52.4196 23.8827 52.9637 23.3599 53.6358C23.2649 53.7854 23.231 53.9656 23.2652 54.1393C23.4175 54.8011 23.3895 55.4915 23.1841 56.1389C22.9787 56.7863 22.6035 57.3672 22.0971 57.8213C20.203 59.6781 18.3299 61.5348 16.4357 63.3811C16.1912 63.6013 15.9348 63.8079 15.6675 64H14.9204C14.4995 63.6328 14.068 63.2867 13.6682 62.8881C9.36773 58.5591 5.06029 54.2232 0.745828 49.8804C-0.243341 48.8943 -0.253864 48.3488 0.745828 47.3732C2.47161 45.6319 4.21844 43.901 5.94422 42.1282C6.36619 41.644 6.89388 41.2627 7.48675 41.0136C8.07962 40.7644 8.7219 40.6541 9.36422 40.691C9.46995 40.6768 9.57147 40.6405 9.66214 40.5845C9.75281 40.5284 9.83058 40.4539 9.89037 40.3658C13.0473 35.1733 17.7722 32.8759 23.7072 32.7605C25.6493 32.7278 27.5804 33.0587 29.4001 33.7361C29.8496 33.895 30.3229 33.9766 30.7997 33.9774C34.9458 33.9774 39.0919 33.9774 43.238 33.9774C44.1578 33.9125 45.0797 34.0693 45.9259 34.4345C46.772 34.7997 47.5176 35.3625 48.0996 36.0754C48.1816 35.841 48.2948 35.6187 48.4364 35.4145C50.7725 33.0018 53.1121 30.6031 55.4553 28.2183C55.9348 27.6956 56.5209 27.281 57.1743 27.0024C57.8276 26.7238 58.5331 26.5876 59.2436 26.6029C60.2183 26.6113 61.1685 26.9078 61.974 27.455C62.7795 28.0021 63.4041 28.7753 63.7685 29.6764C63.8316 29.8233 63.9263 29.9597 64 30.1065V33.0647ZM21.7078 51.6951C21.8455 51.589 21.9757 51.4733 22.0971 51.349C22.8441 50.5346 23.7656 49.8986 24.7932 49.4882C25.8207 49.0778 26.9278 48.9034 28.0321 48.9782C33.1569 49.0516 38.2816 48.9782 43.4169 48.9782C44.7866 49.0225 46.1477 48.7457 47.3906 48.1699C48.6334 47.5942 49.7233 46.7356 50.5726 45.6633C52.5509 43.2191 54.6029 40.8379 56.6233 38.4357C58.065 36.7153 59.5172 34.9949 60.9483 33.2641C61.1871 33.026 61.3751 32.7423 61.501 32.43C61.627 32.1177 61.6883 31.7832 61.6813 31.4467C61.6742 31.1102 61.599 30.7785 61.4601 30.4717C61.3212 30.1649 61.1215 29.8893 60.873 29.6614C60.6245 29.4335 60.3323 29.258 60.0141 29.1456C59.6958 29.0331 59.358 28.9859 59.021 29.007C58.684 29.028 58.3547 29.1167 58.053 29.2678C57.7513 29.4189 57.4833 29.6293 57.2652 29.8863C54.7187 32.5298 52.1195 35.1837 49.5308 37.7748C49.3651 37.9108 49.2354 38.0851 49.1528 38.2826C49.0703 38.4801 49.0375 38.6947 49.0572 38.9077C49.0845 39.3446 49.0273 39.7826 48.8889 40.198C48.6035 41.3272 47.9305 42.3211 46.9867 43.0071C46.0428 43.6931 44.8878 44.0279 43.722 43.9535H34.3355C33.2095 43.9535 32.5992 43.5129 32.5992 42.6946C32.5992 41.8764 33.1885 41.4568 34.346 41.4568H43.5326C43.8459 41.4571 44.1588 41.4361 44.4692 41.3939C45.0343 41.3039 45.5509 41.0221 45.9316 40.5961C46.3123 40.1702 46.5338 39.6262 46.5585 39.0563C46.5833 38.4863 46.4098 37.9253 46.0674 37.4682C45.7251 37.011 45.2348 36.6858 44.6796 36.5475C44.2913 36.474 43.8962 36.4423 43.5011 36.453C39.1445 36.453 34.788 36.453 30.4209 36.453C29.9671 36.4663 29.5145 36.3988 29.0845 36.2537C27.0797 35.4607 24.9226 35.1238 22.7706 35.2677C19.4425 35.3707 16.2815 36.7453 13.9418 39.107C13.1841 39.9681 12.4812 40.8755 11.8371 41.824L21.7078 51.6951ZM2.97672 48.6111C7.18595 52.7022 11.332 56.7409 15.6044 60.9579C17.1408 59.3634 18.7613 57.664 20.4134 55.9331C20.5515 55.8109 20.6606 55.6596 20.7326 55.4901C20.8046 55.3206 20.8378 55.1372 20.8297 54.9533C20.8216 54.7694 20.7725 54.5896 20.686 54.427C20.5994 54.2644 20.4775 54.1232 20.3293 54.0134C16.8216 50.5167 13.3384 47.0515 9.87985 43.6178C9.77403 43.4798 9.63884 43.367 9.48403 43.2874C9.32922 43.2078 9.15863 43.1634 8.98453 43.1573C8.81044 43.1513 8.63717 43.1838 8.47719 43.2526C8.31722 43.3213 8.17452 43.4245 8.05936 43.5548C6.39672 45.2123 4.72355 46.8907 2.97672 48.6111Z" fill="white"/>
<path d="M37.324 27.484C34.5935 27.4819 31.9252 26.6714 29.6574 25.1555C27.3896 23.6395 25.6245 21.4864 24.5859 18.9691C23.5473 16.4517 23.282 13.6837 23.8237 11.0158C24.3654 8.34802 25.6896 5.90066 27.6285 3.9841C29.5673 2.06754 32.0335 0.768125 34.7141 0.250642C37.3948 -0.266841 40.1693 0.0209174 42.6857 1.07743C45.2021 2.13394 47.347 3.9116 48.8486 6.18499C50.3501 8.45838 51.1406 11.1251 51.1198 13.8469C51.092 17.4751 49.6259 20.9452 47.0414 23.4999C44.4569 26.0547 40.9637 27.4869 37.324 27.484ZM37.324 24.9874C39.5556 24.9936 41.7388 24.3399 43.5976 23.109C45.4564 21.878 46.9072 20.1251 47.7665 18.0721C48.6258 16.0191 48.8549 13.7581 48.4249 11.5752C47.9949 9.39233 46.9251 7.38563 45.3508 5.80895C43.7766 4.23228 41.7686 3.15648 39.5809 2.71765C37.3931 2.27883 35.124 2.49668 33.0605 3.34367C30.997 4.19065 29.2319 5.62871 27.9884 7.47591C26.745 9.32311 26.079 11.4965 26.0749 13.721C26.0707 15.1991 26.3592 16.6634 26.9237 18.0301C27.4882 19.3968 28.3177 20.6391 29.3646 21.6856C30.4116 22.7322 31.6554 23.5626 33.0248 24.1292C34.3943 24.6957 35.8624 24.9874 37.3451 24.9874H37.324Z" fill="white"/>
<path d="M34.4933 15.9554L35.5456 16.6897C35.8755 16.9537 36.2276 17.1888 36.5979 17.3926C36.7566 17.4603 36.9278 17.4938 37.1004 17.4907C37.273 17.4876 37.443 17.4481 37.5991 17.3748C37.7552 17.3014 37.894 17.1959 38.0062 17.0651C38.1184 16.9344 38.2015 16.7814 38.25 16.6163C38.304 16.4537 38.3223 16.2815 38.3037 16.1112C38.2851 15.941 38.2301 15.7767 38.1423 15.6295C38.0545 15.4823 37.936 15.3556 37.7948 15.258C37.6536 15.1604 37.4931 15.0942 37.324 15.0638C36.9136 14.9694 36.4927 14.9589 36.0928 14.854C35.3638 14.6573 34.7114 14.2455 34.2213 13.6727C33.7311 13.0998 33.4261 12.3927 33.3463 11.644C33.2584 10.9049 33.3999 10.1566 33.7518 9.50015C34.1036 8.84367 34.6489 8.31049 35.3141 7.97247C35.4975 7.90997 35.6513 7.78242 35.7464 7.61412C35.8415 7.44582 35.8712 7.24852 35.8297 7.05983C35.7931 6.7497 35.7931 6.43634 35.8297 6.12621C35.8632 5.82289 36.0069 5.54228 36.2337 5.3374C36.4606 5.13252 36.7549 5.01757 37.0609 5.01426C37.6713 5.01426 38.3342 5.49681 38.25 6.12621C38.1456 6.62574 38.2353 7.14616 38.501 7.58233C38.7666 8.0185 39.1884 8.33789 39.6812 8.47599C39.9361 8.62006 40.147 8.83033 40.2915 9.08441C40.4372 9.30742 40.5048 9.57217 40.4838 9.83746C40.4628 10.1027 40.3544 10.3537 40.1755 10.5512C39.9966 10.7487 39.7572 10.8816 39.4946 10.9294C39.232 10.9772 38.9609 10.9371 38.7236 10.8153C38.3763 10.616 38.0817 10.3432 37.7344 10.1649C37.5167 10.0085 37.2473 9.941 36.9812 9.97609C36.7152 10.0112 36.4727 10.1463 36.3033 10.3537C36.0476 10.6985 35.921 11.1215 35.9455 11.5496C35.9822 11.8129 36.1177 12.0524 36.3248 12.2199C36.5319 12.3873 36.795 12.4702 37.0609 12.4517C37.86 12.4501 38.6387 12.7025 39.284 13.1722C39.9293 13.642 40.4076 14.3046 40.6493 15.0638C40.9401 15.8979 40.9169 16.8089 40.5839 17.6272C40.2509 18.4455 39.6309 19.1152 38.8393 19.5116C38.668 19.5732 38.5241 19.6935 38.4335 19.8511C38.343 20.0087 38.3115 20.1932 38.3448 20.3717C38.371 20.6614 38.371 20.9528 38.3448 21.2424C38.342 21.4036 38.3074 21.5627 38.243 21.7105C38.1786 21.8584 38.0856 21.9922 37.9693 22.1042C37.853 22.2162 37.7157 22.3043 37.5653 22.3634C37.4149 22.4226 37.2542 22.4516 37.0925 22.4488C36.9335 22.4578 36.7744 22.4334 36.6254 22.3771C36.4765 22.3209 36.3411 22.2341 36.228 22.1223C36.1149 22.0105 36.0266 21.8763 35.9689 21.7284C35.9111 21.5804 35.8853 21.422 35.8929 21.2634C35.9931 20.8068 35.9179 20.3294 35.6821 19.9255C35.4464 19.5215 35.0672 19.2203 34.6196 19.0815C34.1884 18.8224 33.8272 18.4623 33.5673 18.0325C33.4181 17.8654 33.3265 17.6552 33.3056 17.4325C33.2848 17.2098 33.3359 16.9863 33.4515 16.7946C33.765 16.4756 34.1146 16.1939 34.4933 15.9554Z" fill="white"/>
</svg>
