<svg width="64" height="64" viewBox="0 0 64 64" fill="none" xmlns="http://www.w3.org/2000/svg">
<path d="M3.31512 63.9544C2.31837 63.4303 1.92194 62.815 2.01255 62.0516C2.04676 61.6639 2.2132 61.3001 2.48364 61.0218C2.75408 60.7436 3.11187 60.5679 3.49635 60.5248C3.76393 60.5018 4.03297 60.5018 4.30054 60.5248H61.2058C61.6238 60.5128 62.0323 60.6524 62.3566 60.918C62.6809 61.1836 62.8996 61.5576 62.9728 61.9718C63.0456 62.3762 62.9712 62.7934 62.7632 63.147C62.5552 63.5006 62.2275 63.7671 61.8401 63.8974C61.7867 63.9249 61.7372 63.9594 61.6928 64L3.31512 63.9544Z" fill="#9C3437"/>
<path d="M55.8823 11.051C55.8102 14.0167 54.5911 16.8373 52.4842 18.913C43.2568 28.2335 34.0029 37.5502 24.7225 46.8631C24.3633 47.2029 23.9222 47.4425 23.4426 47.5581C18.1569 48.7431 12.8484 49.9091 7.51732 51.0562C5.77301 51.4436 4.7083 50.3725 5.08208 48.6178C6.2223 43.3005 7.38518 37.9604 8.5707 32.5975C8.71915 32.1062 8.99244 31.6624 9.36357 31.3099C17.3602 23.22 25.3644 15.1377 33.3761 7.06303C34.7806 5.67293 36.1625 4.20308 37.6123 2.83577C38.9795 1.58548 40.6417 0.707496 42.441 0.285188C44.2403 -0.137121 46.1171 -0.0897351 47.8932 0.422846C49.6692 0.935426 51.2855 1.89619 52.5886 3.2139C53.8917 4.53161 54.8383 6.16252 55.3386 7.95178C55.6104 8.94308 55.701 10.0027 55.8823 11.051ZM12.9881 32.6203L23.3407 43.2739L47.5571 18.6737L37.2046 8.27082L12.9881 32.6203ZM50.3662 16.1556C51.2359 15.2541 51.8557 14.1391 52.1638 12.9216C52.4718 11.7041 52.4573 10.4267 52.1218 9.21654C51.8408 7.83556 51.1594 6.56929 50.1635 5.57763C49.1676 4.58596 47.902 3.91336 46.5264 3.64476C45.2991 3.34253 44.0144 3.37087 42.8014 3.72691C41.5885 4.08296 40.4902 4.75416 39.6171 5.67293L50.3662 16.1556ZM11.3231 36.369C10.5415 39.924 9.76 43.5018 8.95581 47.1821L19.7048 44.8007L11.3231 36.369Z" fill="#9C3437"/>
</svg>
