<svg width="64" height="64" viewBox="0 0 64 64" fill="none" xmlns="http://www.w3.org/2000/svg">
<g clip-path="url(#clip0)">
<path d="M41.4026 48.9739C35.8608 52.6079 29.166 54.0533 22.6181 53.0294C16.0702 52.0055 10.1366 48.5854 5.9695 43.4333C1.80241 38.2811 -0.300734 31.7646 0.0684694 25.1491C0.437673 18.5337 3.25288 12.2916 7.96739 7.63479C12.6776 3.00641 18.9364 0.287313 25.5347 0.00273167C32.1331 -0.281849 38.6029 1.88828 43.6943 6.09393C48.7857 10.2996 52.1375 16.2423 53.1022 22.7742C54.0669 29.3061 52.576 35.9637 48.9177 41.4609L56.1022 48.5913C58.1202 50.6087 60.1381 52.6087 62.1386 54.6261C62.7084 55.0971 63.1738 55.6816 63.5051 56.3423C63.8364 57.003 64.0264 57.7255 64.0631 58.4637C64.0997 59.2019 63.9821 59.9396 63.7178 60.6299C63.4535 61.3202 63.0482 61.9478 62.5279 62.4728C62.0076 62.9979 61.3835 63.4088 60.6956 63.6795C60.0076 63.9501 59.2708 64.0745 58.5321 64.0447C57.7934 64.015 57.069 63.8317 56.405 63.5066C55.7411 63.1815 55.1521 62.7217 54.6757 62.1565C50.6979 58.2029 46.72 54.2319 42.7421 50.2435L41.4026 48.9739ZM7.89781 26.7478C7.9751 31.7014 9.99081 36.4274 13.5127 39.9126C17.0346 43.3978 21.7823 45.3646 26.7377 45.3913C31.694 45.3185 36.424 43.3047 39.911 39.7828C43.3981 36.2609 45.364 31.512 45.3863 26.5565C45.3179 21.6002 43.305 16.8689 39.7812 13.3818C36.2573 9.89475 31.5045 7.93082 26.5464 7.91306C21.5886 7.98143 16.8561 9.99375 13.3681 13.5166C9.88004 17.0395 7.91558 21.791 7.89781 26.7478V26.7478Z" fill="#9C3437"/>
</g>
<defs>
<clipPath id="clip0">
<rect width="64" height="64" fill="white"/>
</clipPath>
</defs>
</svg>
