<svg width="64" height="64" viewBox="0 0 64 64" fill="none" xmlns="http://www.w3.org/2000/svg">
<path d="M19.2839 15.2458C18.9133 10.3884 19.781 6.08972 23.6045 2.89951C25.9521 0.89058 28.9843 -0.141875 32.074 0.0157139C39.3051 0.304094 43.3274 5.42284 43.8246 15.2368H51.354C55.2227 15.2368 56 16.0208 56 19.941C56 31.2959 56 42.6479 56 53.9968C55.9819 60.206 52.1946 64 46.012 64C36.3223 64 26.6325 64 16.9428 64C10.8596 64 7 60.197 7 54.1681C7 42.5728 7 30.9685 7 19.3552C7 16.2371 7.98524 15.2548 11.0946 15.2458H19.2839ZM13.2188 45.5797H49.7089V21.455H43.68V27.3397H37.5968V21.482H25.3219V27.3127H19.1754V21.4369H13.2188V45.5797ZM49.8626 51.9421H13.1284V53.7445C13.1284 56.8716 14.1046 57.8719 17.1869 57.89H20.4318C29.0309 57.89 37.6269 57.89 46.2199 57.89C48.7146 57.89 49.8355 56.7635 49.8355 54.2852C49.8806 53.5462 49.8626 52.7982 49.8626 51.9421ZM25.4575 15.1106H37.5154C37.9583 9.37905 35.7076 6.09873 31.4955 6.09873C27.2833 6.09873 25.0778 9.36102 25.4756 15.1106H25.4575Z" fill="white"/>
</svg>
