<svg width="64" height="64" viewBox="0 0 64 64" fill="none" xmlns="http://www.w3.org/2000/svg">
<path d="M0 64C0.807015 61.0261 1.58414 58.2158 2.37621 55.3758C2.98894 52.9521 3.70629 50.5433 4.34891 48.1196C4.42627 47.7838 4.38401 47.4316 4.22935 47.1234C0.372674 40.1872 -0.73233 32.0651 1.1322 24.3584C2.99672 16.6517 7.69548 9.91962 14.3021 5.48939C20.6408 1.03616 28.462 -0.812066 36.1363 0.329754C49.3176 2.26276 58.2844 9.72714 62.5436 22.2917C63.9355 26.7146 64.3363 31.3873 63.7176 35.9809C63.099 40.5745 61.476 44.9774 58.9629 48.8797C56.4497 52.782 53.1076 56.0889 49.1716 58.5677C45.2356 61.0464 40.8014 62.6368 36.1812 63.2268C29.8029 64.0791 23.3156 62.9523 17.6049 60.0002C17.3808 59.8714 17.1329 59.7892 16.876 59.7586C16.6191 59.7279 16.3587 59.7494 16.1104 59.8217C10.9545 61.1897 5.79855 62.5279 0.642623 63.9257L0 64ZM7.65169 56.491L8.07015 56.4018C10.9545 55.6583 13.8538 54.9149 16.7381 54.1417C17.0281 54.049 17.3351 54.0209 17.6373 54.0595C17.9395 54.098 18.2294 54.2022 18.4866 54.3647C22.0701 56.5788 26.1458 57.8819 30.3548 58.1594C34.5637 58.4368 38.7766 57.68 42.6223 55.9557C48.1275 53.6026 52.6686 49.4625 55.5045 44.2111C58.3404 38.9597 59.3037 32.907 58.2372 27.0407C57.1707 21.1745 54.1374 15.841 49.6323 11.9108C45.1271 7.9805 39.4162 5.68546 33.4313 5.40018C26.9144 5.06823 20.511 7.1919 15.4977 11.3479C12.5982 13.6253 10.2229 16.4945 8.53181 19.7622C6.84069 23.0299 5.87301 26.6202 5.69394 30.2913C5.32675 35.8994 6.81766 41.4725 9.93824 46.1569C10.0701 46.3423 10.1575 46.5553 10.1938 46.7795C10.2301 47.0038 10.2142 47.2333 10.1475 47.4505C9.29561 50.4244 8.50354 53.3982 7.65169 56.491Z" fill="#9C3437"/>
<path d="M21.7595 17.1618C23.254 16.7752 23.8667 17.6525 24.3449 18.8866C25.0623 20.7155 25.8394 22.5445 26.6165 24.3436C26.7663 24.6179 26.8333 24.9294 26.8095 25.2407C26.7856 25.5519 26.6719 25.8497 26.482 26.0982C25.8394 26.9606 25.2117 27.823 24.5392 28.6557C24.3366 28.8634 24.2149 29.1359 24.1957 29.4247C24.1765 29.7134 24.2612 29.9995 24.4346 30.2319C26.9094 34.5028 30.7733 37.807 35.3891 39.5995C35.6554 39.7421 35.9648 39.7831 36.2593 39.7146C36.5538 39.6462 36.813 39.473 36.9882 39.2278C37.7802 38.2315 38.6171 37.2799 39.3793 36.2539C39.5287 35.9766 39.7812 35.7684 40.0828 35.674C40.3845 35.5795 40.7113 35.6062 40.9934 35.7484C43.2849 36.809 45.5565 37.8895 47.8082 38.9899C47.9373 39.0842 48.0452 39.2044 48.125 39.3427C48.2048 39.4809 48.2547 39.6343 48.2714 39.7928C48.3865 40.9022 48.1905 42.0215 47.7051 43.0268C47.2197 44.032 46.4639 44.8838 45.5216 45.4877C44.3203 46.2631 42.959 46.7592 41.5386 46.9394C40.1183 47.1196 38.6753 46.9792 37.317 46.5286C30.3339 44.4919 24.263 40.1362 20.1156 34.1871C18.413 32.1482 17.1239 29.8001 16.3196 27.2729C15.8655 25.7997 15.7973 24.2354 16.1216 22.7286C16.446 21.2218 17.152 19.8225 18.1728 18.6636C18.5566 18.0908 19.1014 17.643 19.7391 17.376C20.3769 17.1089 21.0795 17.0344 21.7595 17.1618Z" fill="#9C3437"/>
</svg>
